<svg width="17" height="16" viewBox="0 0 17 16" fill="none" xmlns="http://www.w3.org/2000/svg">
<path d="M6.375 12.6666C3.32917 13.6 3.32917 11 2.125 10.6666M10.625 14V11.6666C10.625 11 10.6958 10.7333 10.2708 10.3333C12.2542 10.1333 14.1667 9.39997 14.1667 6.3333C14.1658 5.53661 13.8356 4.77151 13.2458 4.19997C13.5224 3.50794 13.497 2.74105 13.175 2.06663C13.175 2.06663 12.3958 1.86663 10.6958 2.9333C9.25596 2.58036 7.74404 2.58036 6.30417 2.9333C4.60417 1.86663 3.825 2.06663 3.825 2.06663C3.50305 2.74105 3.47759 3.50794 3.75417 4.19997C3.16445 4.77151 2.8342 5.53661 2.83333 6.3333C2.83333 9.39997 4.74583 10.1333 6.72917 10.3333C6.30417 10.7333 6.30417 11.1333 6.375 11.6666V14" stroke="#D5D5D5" stroke-width="0.875" stroke-linecap="round" stroke-linejoin="round"/>
</svg>
